<svg xmlns="http://www.w3.org/2000/svg" id="Camada_2" data-name="Camada 2" viewBox="0 0 784.29 231.96"><defs><style>      .cls-1 {        fill-rule: evenodd;      }      .cls-1, .cls-2 {        stroke-width: 0px;      }    </style></defs><g id="Camada_1-2" data-name="Camada 1"><g><path class="cls-2" d="m780.4,46.19c2.59,2.59,3.89,5.99,3.89,9.4h0c0,3.4-1.3,6.8-3.89,9.4s-6,3.89-9.4,3.89h0c-3.41,0-6.81-1.3-9.4-3.89-2.59-2.59-3.89-5.99-3.89-9.4h0c0-3.4,1.3-6.8,3.89-9.4,2.59-2.59,6-3.89,9.4-3.89h0c3.4,0,6.81,1.3,9.4,3.89m-11.22,5.06h1.93c.27,0,.56.01.85.05.29.03.56.11.81.22.26.11.46.27.62.49.16.22.24.51.24.88,0,.47-.1.83-.28,1.07-.19.24-.45.4-.78.48-.33.08-.72.12-1.16.12h-2.22v-3.3Zm-3.01,11.09h3.01v-5.37h1.14l3.04,5.37h3.21l-3.37-5.5c.66-.08,1.25-.27,1.76-.58.52-.3.92-.73,1.22-1.26.29-.54.45-1.19.45-1.95,0-1.36-.42-2.4-1.28-3.13-.86-.72-2.16-1.09-3.92-1.09h-5.27v13.51Zm12.29-14.22c-2.06-2.06-4.76-3.1-7.46-3.1h0c-2.7,0-5.4,1.04-7.46,3.1-2.06,2.06-3.09,4.76-3.09,7.46h0c0,2.7,1.03,5.4,3.09,7.46,2.06,2.06,4.76,3.1,7.46,3.1h0c2.7,0,5.4-1.04,7.46-3.1,2.06-2.06,3.09-4.76,3.09-7.46h0c0-2.7-1.03-5.4-3.1-7.46Z"></path><path class="cls-1" d="m410.52,129.69v12.13c0,2.38-1.95,4.34-4.34,4.34h-30.97v-26.84h30.97c2.39,0,4.34,1.95,4.34,4.34v6.04Zm-45.75-55.42h9.36l.18.02h29.95c7.53,0,13.69,6.16,13.69,13.69v17.63c0,1.84-.37,3.6-1.03,5.2,3.12,2.52,5.13,6.37,5.13,10.67v22.5c0,7.53-6.16,13.69-13.69,13.69h-33.98c-.08.02-.16.03-.24.03h-4.68v-.02h-4.68c-.59,0-1.08-.49-1.08-1.08v-81.25c0-.6.49-1.08,1.08-1.08Zm-48.65,45.04l19.34,37.31c.27.51-.47,1.06-1.05,1.08h-9.68c-.58,0-.81-.56-1.08-1.08l-19.59-37.31h-11.62v37.31c0,.59-.49,1.08-1.08,1.08h-9.36c-.59,0-1.08-.49-1.08-1.08v-47.75c0-.6.49-1.08,1.08-1.08h15.39s.62,0,.62,0l-17.09-32.55c.07-.53.52-.95,1.07-.95h39.49c7.53,0,13.69,6.16,13.69,13.69v17.64c0,7.53-6.16,13.69-13.69,13.69h-5.37Zm-5.97-11.52h9.17c2.39,0,4.34-1.95,4.34-4.34v-13.32c0-2.39-1.95-4.34-4.34-4.34h-20.57l11.4,21.99Zm-54.36-21.98v21.98h6.29c.6,0,1.08.49,1.08,1.08v9.36c0,.59-.49,1.08-1.08,1.08h-6.29v37.3c0,.59-.49,1.08-1.08,1.08h-9.36c-.6,0-1.08-.49-1.08-1.08v-37.3h-6.29c-.59,0-1.08-.49-1.08-1.08v-9.36c0-.59.49-1.08,1.08-1.08h6.29v-21.98h-15.72c-.59,0-1.08-.49-1.08-1.08v-9.36c0-.6.49-1.08,1.08-1.08h42.96c.6,0,1.08.49,1.08,1.08v9.36c0,.59-.49,1.08-1.08,1.08h-15.72Zm89.13-11.54h9.36c.6,0,1.08.49,1.08,1.08v81.25c0,.59-.49,1.08-1.08,1.08h-9.36c-.59,0-1.08-.49-1.08-1.08v-81.25c0-.6.49-1.08,1.08-1.08Zm122.67.81h0s.01.06.01.06l21.66,81.48c.14.54-.47,1.06-1.05,1.08h-9.87c-.58,0-.93-.51-1.08-1.08l-18.76-70.81h-1.52l-6.14,23.19,12.66,47.63c.15.55-.47,1.06-1.05,1.08h-9.87c-.58,0-.93-.51-1.08-1.08l-6.64-25.05-6.63,25.05c-.15.57-.5,1.08-1.08,1.08h-9.87c-.58-.02-1.2-.53-1.05-1.08l21.68-81.54h0c.12-.46.55-.81,1.05-.81h17.61c.5,0,.93.35,1.05.81Zm29.6-.81h9.36c.6,0,1.08.49,1.08,1.08v70.81h32.49c.6,0,1.08.49,1.08,1.08v9.36c0,.59-.49,1.08-1.08,1.08h-42.99s-.05,0-.05,0h-.05s-.05-.02-.05-.02h-.05s-.05-.02-.05-.02l-.05-.02h0l-.05-.02-.05-.02h0l-.04-.02h0l-.13-.08h0s-.04-.03-.04-.03l-.04-.03h0l-.04-.03h0l-.03-.04h0l-.03-.04h0s-.03-.04-.03-.04h0s-.03-.04-.03-.04l-.03-.04-.03-.05h0l-.02-.05-.02-.05h0l-.02-.05-.02-.05h0s-.02-.05-.02-.05v-.05s-.02-.05-.02-.05v-.05s-.01-.05-.01-.05v-.06s0-9.36,0-9.36v-71.89c0-.6.49-1.08,1.08-1.08Zm50.41,0h9.36c.6,0,1.08.49,1.08,1.08v81.25c0,.59-.49,1.08-1.08,1.08h-9.36c-.59,0-1.08-.49-1.08-1.08v-81.25c0-.6.49-1.08,1.08-1.08Zm69.32,21.35v-1.89c0-15.91-11.64-19.82-25.45-19.82-13.07,0-25.58,3.13-25.58,18.79v5.42c0,12.72,7.19,17.42,18.46,20.68l12.81,3.71c.09.03.19.06.28.1,5.51,2.34,9.03,4.9,9.2,11.35v5.67c0,8.31-7.99,9.4-14.52,9.4-7.46,0-15.29-2.14-15.29-11.06v-4.64c0-.59-.49-1.08-1.08-1.08h-9.41c-.6,0-1.08.49-1.08,1.08v4.38c0,16.69,12.59,20.33,26.86,20.33s26.35-3.37,26.35-19.69v-4.87c0-11.82-6.04-17.11-16.9-20.16l-13.81-3.88c-5.8-2.19-10.04-4.75-10.04-11.58v-6.06c0-7.86,7.12-8.88,13.37-8.88,7.11,0,14.27,1.96,14.27,10.42v4c0,.6.49,1.08,1.08,1.08h9.41c.6,0,1.08-.49,1.08-1.08v-1.72h0Zm9.83-21.36h9.41c.15,0,.28.03.39.09.34.15.59.48.63.87l.05.12,18.23,40.78v-40.75c0-.6.49-1.08,1.08-1.08h9.36c.6,0,1.08.49,1.08,1.08v40.75l18.23-40.78.05-.11c.04-.4.3-.74.66-.89h0s.02-.01.02-.01c.1-.05.21-.07.35-.07h9.41c.24,0,.46.08.64.21h0c.29.19.49.47.43.76v.11s0,81.25,0,81.25c0,.59-.49,1.08-1.08,1.08h-9.36c-.59,0-1.08-.49-1.08-1.08v-55.57l-17.99,40.23c-.24.54-.48,1.08-1.08,1.08h-9.95c-.59,0-.84-.54-1.08-1.08l-17.99-40.24v55.58c0,.59-.49,1.08-1.08,1.08h-9.36c-.59,0-1.08-.49-1.08-1.08v-81.38c-.04-.28.15-.54.42-.72.18-.14.42-.23.67-.23Zm104.11,74.3c-10.29,0-14.78-6.03-14.78-12.68v-39.81c0-6.65,4.49-12.68,14.78-12.68s14.78,5.92,14.78,12.68v39.81c0,6.65-4.49,12.68-14.78,12.68Zm0-27.15c-3,0-5.43-2.44-5.43-5.43s2.43-5.43,5.43-5.43,5.43,2.43,5.43,5.43-2.43,5.43-5.43,5.43Zm-.11,36.63c18.74,0,26.97-7.4,26.97-21.25v-40.62c0-14.15-7.45-22.27-26.97-22.27s-26.74,8.25-26.74,22.27v40.62c0,13.73,8.09,21.25,26.74,21.25Zm-355.54-72.24v21.98h26.88c2.39,0,4.34-1.95,4.34-4.33v-13.31c0-2.39-1.95-4.34-4.34-4.34h-26.88Z"></path><path class="cls-1" d="m72.73,186.99l26.74-31.32c.52-.61,1.23-.93,2.02-.93s1.51.33,2.02.93l26.74,31.32h7.29c1.03,0,1.87.84,1.87,1.87v8.31c0,1.03-.84,1.87-1.87,1.87h-72.1c-1.03,0-1.87-.84-1.87-1.87v-8.31c0-1.03.84-1.87,1.87-1.87h7.28Zm22-141.27h-11.78c-1.19,0-2.15-.96-2.15-2.15v-9.22c0-1.19.96-2.15,2.15-2.15h37.09c1.19,0,2.15.97,2.15,2.15v9.22c0,1.19-.97,2.15-2.15,2.15h-11.78v31.11c0,1.19-.96,2.15-2.15,2.15h-9.22c-1.19,0-2.15-.96-2.15-2.15v-31.11Zm84.19,44.91c-7.16,0-13.96,2.81-19.02,7.87-5.06,5.06-7.88,11.86-7.88,19.02s2.81,13.96,7.88,19.02c5.06,5.06,11.86,7.88,19.02,7.88,1.87,0,3.4,1.52,3.4,3.39v6.73c0,1.87-1.53,3.4-3.4,3.4-10.75,0-20.97-4.24-28.57-11.84-7.6-7.6-11.84-17.82-11.84-28.57s4.24-20.97,11.84-28.57c7.6-7.6,17.82-11.84,28.57-11.84,1.87,0,3.4,1.53,3.4,3.4v6.73c0,1.87-1.53,3.4-3.4,3.4Zm-124.4,14.54c2.07.61,4.15,1.18,6.23,1.74,5.96,1.6,5.96,19.91,0,21.51-2.07.55-4.13,1.12-6.19,1.73,1,1.84,2.04,3.66,3.09,5.47,3.08,5.35-9.86,18.3-15.21,15.21-1.8-1.04-3.6-2.08-5.43-3.07-.6,2.03-1.15,4.07-1.7,6.11-.25.93-.75,1.68-1.51,2.26l-.99.76c-1.51,1.16-7.88,1.07-9.98,1.02-.8-.02-1.44-.68-1.44-1.47v-11.99c0-.81.66-1.47,1.47-1.47,14.06,0,25.46-11.4,25.46-25.46s-11.4-25.46-25.46-25.46c-.81,0-1.47-.66-1.47-1.47v-11.95c0-.78.6-1.42,1.38-1.47,3.47-.23,11.43.15,12.54,4.3.54,2.01,1.09,4.03,1.68,6.03,1.83-1,3.65-2.04,5.45-3.08,5.26-3.03,18.24,9.96,15.21,15.21-1.06,1.84-2.12,3.68-3.13,5.54Zm101.38,82.34l-54.4-63.71-54.4,63.71,8.37,22.65c.31.83.27,1.73-.11,2.53-.38.8-1.04,1.4-1.87,1.7l-49.11,17.4c-1.11.39-2.33.17-3.22-.6-.9-.76-1.31-1.93-1.1-3.09l9.49-51.22c.15-.87.64-1.62,1.38-2.12.73-.5,1.62-.68,2.49-.51l23.67,4.71,55.76-65.29-37.42-43.82-21.2-1.68c-.88-.07-1.66-.47-2.24-1.14L.79,30.5c-.87-1.02-1.04-2.43-.43-3.62.61-1.18,1.86-1.88,3.18-1.78l23.96,1.89,1.89-23.97c.11-1.33.99-2.45,2.25-2.86,1.27-.41,2.64-.02,3.51.99l31.2,36.54c.57.67.84,1.51.77,2.39l-1.68,21.25,36.04,42.2,36.04-42.2-1.68-21.25c-.07-.88.2-1.72.77-2.39L167.83,1.15c.87-1.01,2.24-1.4,3.51-.99,1.26.41,2.15,1.53,2.25,2.86l1.89,23.97,23.96-1.89c1.32-.1,2.57.6,3.18,1.78.61,1.19.44,2.6-.43,3.62l-31.2,36.54c-.57.67-1.36,1.07-2.23,1.14l-21.2,1.68-37.42,43.82,55.76,65.29,23.68-4.71c.87-.17,1.76,0,2.49.51.74.5,1.23,1.25,1.38,2.12l9.49,51.22c.21,1.16-.2,2.32-1.1,3.09-.89.77-2.11.99-3.22.6l-49.11-17.4c-.83-.3-1.49-.9-1.87-1.7-.37-.8-.41-1.71-.11-2.53l8.37-22.65ZM26.1,38.69c3.44.27,6.89.53,10.33.8,1,.08,1.95-.73,2.03-1.74.27-3.44.55-6.88.82-10.32.04-.52.37-.94.87-1.1.49-.16,1.01-.02,1.34.38l13.27,15.55c.23.26.33.57.3.91l-.34,4.4c-.04.52-.37.94-.87,1.1-.49.16-1.01.01-1.35-.38l-1.4-1.64c-.35-.4-.78-.61-1.29-.66-.51-.03-.98.11-1.38.45l-5.01,4.29c-.78.67-.88,1.88-.21,2.66l1.37,1.6c.34.4.4.93.16,1.39-.24.46-.7.72-1.22.68l-4.35-.34c-.35-.03-.63-.17-.86-.44-4.42-5.18-8.85-10.36-13.28-15.55-.34-.39-.4-.92-.17-1.39.24-.46.7-.72,1.22-.68Zm150.78,0c-3.44.27-6.88.53-10.33.8-1,.08-1.95-.73-2.03-1.74-.27-3.44-.55-6.88-.82-10.32-.04-.52-.37-.94-.86-1.1-.5-.16-1.01-.02-1.34.38l-13.27,15.55c-.23.26-.33.57-.3.91l.35,4.4c.04.52.37.94.86,1.1.5.16,1.01.01,1.34-.38l1.4-1.64c.35-.4.78-.61,1.29-.66.51-.03.97.11,1.38.45l5.01,4.29c.78.67.88,1.88.21,2.66l-1.37,1.6c-.34.4-.4.93-.17,1.39.24.46.7.72,1.22.68l4.35-.34c.35-.03.63-.17.86-.44,4.43-5.18,8.85-10.36,13.28-15.55.34-.39.4-.92.16-1.39-.24-.46-.7-.72-1.22-.68ZM35.96,191.35l5.04,13.63c.12.33.11.65-.04.97-.15.32-.39.54-.72.65l-23.9,8.47c-.44.15-.89.07-1.24-.23-.35-.3-.5-.73-.42-1.19l4.61-24.93c.06-.34.24-.62.53-.81.29-.2.61-.26.95-.19l14.25,2.83c.44.09.78.38.93.8Zm131.06,0l-5.04,13.63c-.12.33-.11.65.04.97.15.32.39.54.72.65l23.9,8.47c.44.15.89.07,1.24-.23.35-.3.5-.73.42-1.19l-4.61-24.93c-.06-.34-.24-.62-.53-.81-.29-.2-.61-.26-.95-.19l-14.25,2.83c-.44.09-.78.38-.93.8Zm-77.68-6.44l11.2-13.11c.25-.29.58-.44.96-.44s.71.15.96.44l11.2,13.11c.33.38.4.89.19,1.34-.21.46-.64.73-1.14.73h-4.65c-.69,0-1.26-.57-1.26-1.26v-2.3c0-.62-.51-1.14-1.14-1.14h-8.31c-.62,0-1.14.51-1.14,1.14v2.3c0,.69-.57,1.26-1.26,1.26h-4.65c-.5,0-.93-.27-1.14-.73-.21-.46-.14-.96.19-1.34Zm93.32-52.95c-.07.25-.19.44-.4.59l-.4.31c-.51.39-5.39.39-5.9,0l-.4-.31c-.2-.16-.33-.35-.4-.59-2.17-8.04-2.6-8.47-10.64-10.64-1.79-.48-1.79-7.02,0-7.5,8.04-2.17,8.48-2.6,10.64-10.64.47-1.75,7.03-1.75,7.5,0,2.17,8.04,2.6,8.47,10.64,10.64,1.79.48,1.79,7.02,0,7.5-8.04,2.17-8.47,2.6-10.64,10.64Z"></path></g></g></svg>