<?xml version="1.0" encoding="UTF-8"?>
<!DOCTYPE svg PUBLIC "-//W3C//DTD SVG 1.1//EN" "http://www.w3.org/Graphics/SVG/1.1/DTD/svg11.dtd">
<!-- Creator: CorelDRAW -->
<svg xmlns="http://www.w3.org/2000/svg" xml:space="preserve" width="91.44mm" height="91.44mm" version="1.1" style="shape-rendering:geometricPrecision; text-rendering:geometricPrecision; image-rendering:optimizeQuality; fill-rule:evenodd; clip-rule:evenodd"
viewBox="0 0 9144 9144"
 xmlns:xlink="http://www.w3.org/1999/xlink"
 xmlns:xodm="http://www.corel.com/coreldraw/odm/2003">
 <defs>
  <style type="text/css">
   <![CDATA[
    .fil0 {fill:#DFE2E6}
   ]]>
  </style>
 </defs>
 <g id="Camada_x0020_1">
  <metadata id="CorelCorpID_0Corel-Layer"/>
  <path class="fil0" d="M6084.98 3205.01c151.27,672.26 160.31,1382.98 10.79,2060.87 -47.92,216.99 -101.04,412.94 -159.42,587.83 -158.62,475.1 -382.56,912.03 -671.82,1310.83 -1.09,1.53 -1.69,3.37 -1.69,5.25 0,3.99 2.6,7.49 6.43,8.65 71.37,21.09 147.68,33.72 228.91,37.86 76.41,3.85 153.47,-3.06 231.14,-20.7 195.7,-44.38 363.93,-120.42 504.72,-228.18 377.99,-289.26 637.52,-730.4 792.79,-1191.78 126,-374.24 190.67,-753.91 194.02,-1138.99 1.92,-231.15 -28.83,-487.12 -74.82,-703.91 -84,-396.03 -239.87,-781.42 -487.12,-1109.72 -107.16,-142.36 -234.74,-260.81 -382.73,-355.34 -62.99,-40.39 -136.92,-71.29 -194.02,-101.46 -100.71,-53.08 -204.21,-74.1 -317.64,-82.82 -0.11,0 -0.23,0 -0.35,0 -2.61,0 -4.74,2.11 -4.74,4.73 0,0.6 0.12,1.22 0.35,1.78 35.94,83.55 91.39,189.89 131.03,288.36 80.16,199.05 144.86,407.96 194.17,626.74zm1148.44 429.75c182.69,633.72 190.57,1272.17 23.66,1915.35 -119.49,460.07 -307.28,881.53 -609.42,1240.14 -229.07,271.96 -488.44,461.54 -830.06,544.36 -125.84,30.46 -223.3,47.61 -344.55,34.6 -0.33,-0.06 -0.66,-0.08 -0.99,-0.08 -3.41,0 -6.2,2.79 -6.2,6.2 0,2.13 1.09,4.12 2.89,5.25 130.74,91.12 248.74,121.44 418.36,161.95 75.56,18.03 145.67,16.71 214.14,9.16 153.1,-16.75 293.84,-59.35 422.18,-127.76 93.27,-49.59 202.32,-124.48 327.12,-224.65 97.9,-78.67 192.41,-171.33 283.51,-278 204.17,-239.37 369.4,-506.5 495.7,-801.38 192.53,-449.56 295.76,-930.91 295.02,-1421.44 -0.46,-252.88 -18.05,-500.42 -58.57,-712.49 -48.59,-254.84 -126.43,-504.12 -233.5,-747.84 -85.49,-194.62 -191.27,-375.53 -317.35,-542.72 -121.77,-161.39 -261.81,-300.61 -420.14,-417.62 -187.22,-138.43 -403.14,-233.06 -615.93,-272.85 -191.07,-35.78 -372.8,15.39 -551.75,90.52 -3.2,1.22 -5.33,4.3 -5.33,7.73 0,4.22 3.2,7.78 7.4,8.23 416.64,56.79 756.81,247.56 1020.54,572.3 146.54,180.42 256.43,378.74 352.99,591.68 48.6,106.87 92.03,226.65 130.28,359.36zm-1215.88 107.8c-30.57,-309.27 -108.2,-641.87 -232.9,-997.77 -55.03,-156.9 -149.23,-346.04 -231,-495.39 -102.84,-187.92 -225.08,-363.6 -366.76,-527.05 -185.15,-213.84 -402.02,-382.63 -650.68,-506.36 -190.17,-94.79 -380.2,-139.59 -578.07,-159.25 -122.13,-12.25 -252.77,-4.1 -391.89,24.38 -129.72,26.53 -213.97,46.78 -252.71,60.78 -402.99,146.1 -738.52,382.72 -1020.25,702.58 -163.25,185.26 -307.68,387.11 -433.29,605.6 -165.19,287.33 -308.63,606.01 -400.47,935.63 -72.6,260.57 -139.01,512.12 -176.85,779.35 -49.41,347.82 -74.24,651.56 -59,934.01 10.73,199.65 40.36,428.91 88.86,687.8 41.9,223.6 118.21,473.97 228.93,751.1 134.67,337.07 318.28,640.78 550.85,911.11 121.37,141.16 268.12,267.99 440.24,380.49 293.84,192.1 635,287.78 980.46,257.75 134.49,-11.64 245.54,-29.82 333.18,-54.57 287.04,-80.88 573.34,-244.44 827.41,-459.9 43.28,-36.77 82.62,-73.07 118,-108.84 280.49,-283.84 512.41,-606.72 695.78,-968.64 235.74,-465.38 406.68,-948.8 489.21,-1447.31 70.87,-427.88 84.52,-863.05 40.95,-1305.5zm-1976.44 -58.87c41.86,-219.6 141.51,-442.74 293.39,-610.46 115.35,-127.16 302.28,-227.73 477.81,-195.63 217.1,39.62 366.31,237.34 436.85,441.12 70.08,203.19 86.07,406.99 46.28,616.23 -41.84,219.6 -141.51,442.76 -293.53,610.46 -115.36,127.18 -302.28,227.72 -477.82,195.65 -217.1,-39.64 -366.3,-237.37 -436.7,-441.15 -70.23,-203.18 -86.21,-406.96 -46.28,-616.22zm21.3 -1861.69c121.56,148.63 177,377.11 164.74,571.29 -7.59,121.95 -35.49,251.35 -83.71,388.19 -79.42,225.37 -249.32,479.57 -480.46,566.38 -159.26,59.89 -309.67,14.48 -424.57,-110.76 -139.3,-152.16 -203.92,-366.31 -209.69,-567.13 -8.09,-281.87 72.79,-536.21 242.66,-763.07 93.76,-125.02 212.82,-207.03 357.14,-246.08 162.24,-43.92 328.9,32.68 433.89,161.18zm-473.74 4067.03c57.99,-525.23 394.83,-919.02 752.34,-879.56 357.52,39.47 600.33,497.25 542.34,1022.48 -57.99,525.23 -394.8,919.02 -752.32,879.55 -357.52,-39.46 -600.32,-497.26 -542.36,-1022.47zm-1706.13 -2605.07c45.13,-415.48 299.99,-728.58 569.22,-699.34 269.26,29.27 450.93,389.78 405.79,805.27 -45.13,415.46 -299.99,728.55 -569.22,699.31 -269.26,-29.24 -450.93,-389.78 -405.79,-805.24zm1480.53 464.37c177.17,20.85 307.31,215.76 357.73,373.98 84.89,267.19 68.22,534.6 -49.99,802.26 -82.22,186.04 -268.4,389.97 -489.64,363.79 -221.38,-26.16 -354.91,-267.81 -391.43,-467.89 -52.65,-287.89 -6.52,-551.81 138.41,-791.76 85.78,-142.11 257.76,-301.39 434.92,-280.38zm-1072.82 2682c31.15,-456.61 297.01,-810.39 593.85,-790.16 296.84,20.24 512.25,406.82 481.12,863.45 -31.12,456.64 -297,810.41 -593.85,790.17 -296.84,-20.23 -512.24,-406.82 -481.12,-863.46zm-102.7 -2104.24c288.22,109.88 376.96,511.84 353.16,778.32 -23.82,266.48 -182.65,646.38 -485.8,703.33 -135.02,25.41 -264.85,-73.95 -336.59,-181.47 -118.29,-177.6 -160.89,-397.66 -142.11,-608.1 18.94,-210.42 99.97,-419.37 247.85,-573.17 89.63,-93.18 235.13,-167.86 363.49,-118.91z"/>
 </g>
</svg>
