<?xml version="1.0" encoding="UTF-8"?>
<!DOCTYPE svg PUBLIC "-//W3C//DTD SVG 1.1//EN" "http://www.w3.org/Graphics/SVG/1.1/DTD/svg11.dtd">
<!-- Creator: CorelDRAW -->
<svg xmlns="http://www.w3.org/2000/svg" xml:space="preserve" width="91.44mm" height="91.44mm" version="1.1" style="shape-rendering:geometricPrecision; text-rendering:geometricPrecision; image-rendering:optimizeQuality; fill-rule:evenodd; clip-rule:evenodd"
viewBox="0 0 9144 9144"
 xmlns:xlink="http://www.w3.org/1999/xlink"
 xmlns:xodm="http://www.corel.com/coreldraw/odm/2003">
 <defs>
  <style type="text/css">
   <![CDATA[
    .fil0 {fill:#DFE2E6}
   ]]>
  </style>
 </defs>
 <g id="Camada_x0020_1">
  <metadata id="CorelCorpID_0Corel-Layer"/>
  <g id="_1312415634304">
   <path class="fil0" d="M5395.72 5546.38c3.76,2.13 3.76,2.13 3.76,2.13 207.9,120.04 238.69,456.05 68.77,750.35 -169.93,294.29 -476.33,435.61 -684.23,315.57 -207.9,-120.04 -238.69,-456.05 -68.77,-750.35 168.9,-292.53 472.66,-433.91 680.47,-317.7zm45.42 -1116.97c-191.34,4.98 -405.02,80.53 -577.72,172.85 -384.38,205.71 -692.52,542.44 -885.43,928.39 -38.6,77.11 -74.92,156.96 -108.97,239.57 -123.48,300.02 -188.78,635.61 -157.62,960.54 23.9,250.09 100.57,488.94 259.34,683.13 186.64,228.04 466.47,325.21 747.72,296.89 339,-33.99 664.21,-210.25 914.3,-440.15 410,-376.84 679.58,-894.1 771.19,-1442.51 11.29,-67.15 17.26,-128.42 17.93,-183.8 1.28,-102 6.69,-200.73 -8.68,-302.45 -20.1,-132.01 -57.28,-259.58 -111.53,-382.68 -53.87,-122.44 -131.78,-230.65 -233.73,-324.64 -166.02,-152.78 -405.45,-210.82 -626.8,-205.14z"/>
   <path class="fil0" d="M5357.93 6235.26c132.8,-230.01 121.56,-485.21 -25.11,-569.9l-5.85 -3.31c-140.82,-81.38 -367.47,36.47 -500.27,266.48 -132.8,230.01 -121.56,485.21 25.11,569.9 146.67,84.69 373.32,-33.16 506.12,-263.17z"/>
   <path class="fil0" d="M2100.88 3198.72c42.67,-24.18 123.28,-58.6 241.84,-103.27 95.69,-36.14 215.8,-59.66 360.34,-70.57 55.1,-4.17 121.02,-0.33 197.74,11.52 78.53,12.05 143.54,24.38 195.04,37 3.78,0.95 6.04,-3.72 3.27,-6.12 -153.5,-143.55 -381.54,-207.14 -588.53,-206.57 -35.85,0.1 -86.68,5.27 -152.5,15.51 -80.33,12.61 -130.69,22.29 -151.08,29.02 -141.5,46.57 -272.48,109.16 -392.92,187.79 -486.96,317.81 -807.19,824.25 -953.71,1389.31 -72.37,279.21 -74.64,555.81 -6.83,829.8 56.76,229.04 188.64,458.79 380.68,595.21 92,65.45 190.16,112.67 294.48,141.7 5.54,1.31 8.86,-6.2 4.27,-9.41 -167.77,-112.37 -292.73,-263.64 -374.85,-453.79 -87.16,-201.73 -125.19,-419.43 -114.09,-653.12 9.1,-191.01 41.53,-369.54 97.3,-535.61 116.08,-345.69 304.86,-669.04 570.04,-916.15 117.08,-109.26 253.93,-205.85 389.51,-282.25z"/>
   <path class="fil0" d="M4916.06 2012.13c0,322.31 765.04,583.7 1708.4,583.7 943.36,0 1708.4,-261.39 1708.4,-583.7 0,-322.31 -765.04,-583.69 -1708.4,-583.69 -943.36,0 -1708.4,261.38 -1708.4,583.69z"/>
   <path class="fil0" d="M7018.95 2718.17c-156.11,12.04 -285.47,17.36 -388.09,15.93l-10.53 0c-102.62,1.33 -231.98,-4.07 -388.08,-16.21 -254.93,-19.73 -510.76,-66.63 -767.5,-140.7 -46.47,-13.47 -125,-42.58 -235.58,-87.35 -115.8,-46.85 -217.42,-112.05 -304.86,-195.61 -3.09,-3 -8.16,-1.14 -8.68,2.99 -6.83,54.49 3.7,97.02 38.55,143.97 98.59,132.02 264.04,217.8 413.41,278.41 390.93,158.9 823.97,208.4 1258,208.55 433.9,0.14 866.93,-49.09 1258.01,-207.84 149.37,-60.47 314.96,-146.11 413.55,-277.98 34.99,-46.95 45.52,-89.48 38.69,-143.97 -0.52,-4.12 -5.57,-5.99 -8.68,-2.99 -87.53,83.46 -189.2,148.57 -305,195.33 -110.58,44.76 -189.11,73.83 -235.58,87.2 -256.83,73.97 -512.71,120.73 -767.63,140.27z"/>
   <path class="fil0" d="M7567.21 6161c-306.42,88.11 -631.58,129.13 -975.47,123.06 -94.37,-1.71 -148.24,-3.13 -161.61,-4.27 -2.68,-0.3 -5.36,1.27 -6.51,3.88l-124.79 305.39c-2.77,6.61 1.84,14.28 9.15,14.64 179.76,8.13 398.27,16.24 591.75,2.29 382.11,-27.45 769.77,-90.33 1105.79,-248.95 70.94,-33.48 137.18,-75.16 198.73,-125.05 53.35,-43.24 134.3,-145.95 135.15,-222.92 0.95,-86.11 -0.62,-176.78 -4.69,-272 -2,-47.52 -14.75,-89.15 -38.27,-124.9 -2.28,-3.21 -7.25,-2.12 -8.11,1.54 -24.9,112.98 -85.07,198.62 -179.25,276.15 -62.78,51.59 -103.33,82.84 -121.63,93.75 -123.77,73.31 -263.84,132.44 -420.24,177.39z"/>
   <path class="fil0" d="M7207.15 6114.91c66.67,-9.1 130.74,-21.29 192.2,-36.56 140.97,-34.85 223.77,-50.79 311.4,-94.89 84.41,-42.39 128.04,-64.2 130.88,-65.44 110.97,-46.66 208.13,-136.28 277.27,-231.17 18.07,-24.75 34.42,-63.73 35.42,-91.62 3.51,-104.32 4.88,-169.62 4.13,-195.89 -0.23,-5.82 -7.19,-8.9 -11.67,-5.13 -103.66,87.92 -220.79,162.14 -351.38,222.65 -44.48,20.58 -103.09,41.12 -175.83,61.6 -82.33,23.14 -142.41,39.31 -180.25,48.51 -296.66,71.8 -595.31,99.44 -895.95,82.94 -3.56,-0.34 -6.94,2.39 -7.4,6.1 -13.37,108.13 -36.47,217.77 -69.28,328.92 -0.92,2.86 1.23,5.9 4.29,6.11 243.95,16.51 487.79,-1.98 736.17,-36.13z"/>
   <path class="fil0" d="M7279.99 5677.18c218.7,-35.57 427.68,-100.34 626.94,-194.33 101.01,-47.8 182.52,-115.23 244.54,-202.29 4.81,-6.67 7.41,-14.69 7.41,-22.92l-0.01 -259.47c0.02,-6.66 -7.96,-10.09 -12.95,-5.7 -217.37,193.34 -527.21,290.5 -810.88,342.86 -253.88,46.85 -512.79,66.29 -776.73,58.32 -2.77,-0.48 -7.12,2.31 -7.12,6.82l0 320.23 0 0.01c0.01,2.62 2.08,4.75 4.7,4.83 239.85,7.21 481.21,-8.91 724.1,-48.36z"/>
   <path class="fil0" d="M7504.48 5217.54c154.78,-37.37 309.7,-101.25 464.76,-191.63 45.95,-26.74 192.19,-137.14 189.92,-197.88 -3.04,-85.93 -3.04,-184.8 0,-296.61 0.18,-7.02 -0.24,-11 -1.28,-11.96 -9.21,-8.61 -23.77,-6.35 -29.38,4.98 -32.11,63.93 -78.22,112.58 -138.35,145.97 -50.74,28.16 -100.96,61.5 -150.65,100 -7.54,5.84 -15.84,10.83 -24.6,14.78 -129.56,57.68 -229.29,95.81 -299.19,114.39 -229.51,61.18 -465.19,95.84 -707.03,104 -160.37,5.41 -270.95,7.11 -331.75,5.12 -1.34,-0.35 -5.04,1.32 -5.04,4.97l0.21 1.43c29.49,94.37 50.78,190.53 63.87,288.5 0.77,5.24 5.22,9.16 10.53,9.24 181.9,2.66 342.46,-3.74 481.69,-19.19 197.93,-21.82 356.69,-47.19 476.29,-76.11z"/>
   <path class="fil0" d="M7545.45 4817.36c44.86,-11 91.14,-26.7 138.84,-47.09 104.71,-44.67 191.91,-74.11 257.35,-131.02 42.68,-37.09 79.43,-64.78 110.26,-83.08 67.57,-39.97 96.87,-79.95 103.27,-150.51 0.51,-6.25 -6.24,-10.22 -11.38,-7.12 -47.7,28.93 -100.95,53.35 -159.75,73.27 -113.24,38.41 -218.66,69.42 -326.92,52.35 -5.24,-0.84 -6.98,-7 -3.56,-10.67 0.02,-0.02 0.03,-0.04 0.06,-0.05 1.31,-1.18 5.89,-1.11 13.75,0.2 4.07,0.66 10.43,-1.48 19.06,-6.41 41.16,-23.9 93.61,-48.22 157.34,-72.98 114.94,-44.52 191.33,-94.46 278.68,-144.54 23.33,-13.37 33.86,-30.72 35.57,-56.61 6.45,-93.33 7.83,-195.57 4.13,-306.71 -0.19,-5.1 -6.74,-7.3 -9.96,-3.13 -25.23,32.05 -55.11,58.56 -89.63,79.52 -130.78,79.38 -261.61,139.27 -392.49,179.67 -115.8,35.85 -284.52,36.99 -393.07,54.35 -16.21,2.56 -115.42,17.68 -297.61,45.38 -223.91,34.04 -443.99,43.81 -660.22,29.3 -65.82,-4.46 -142.6,-8.72 -230.32,-12.8 -105.75,-4.93 -182.19,-13.28 -229.33,-25.04 -162.55,-40.49 -272.8,-71.08 -330.75,-91.76 -126.61,-45.09 -222.07,-105.13 -333.74,-174.41 -44.29,-27.41 -77.86,-58.28 -100.72,-92.61 -3.73,-5.7 -12.35,-2.77 -12.38,3.84l0 179.53c0.04,4.55 2.47,8.64 6.39,10.9l159.34 91.11c5.87,3.32 12.32,4.95 18.83,4.82 63.51,-1.03 129.22,3.71 197.13,14.24 53.2,8.15 145.43,35.56 276.69,82.22 143.68,51.03 273.42,121.64 389.22,211.83 11.47,8.74 24.92,13.16 38.63,12.92 176.26,-0.84 293.12,-0.35 350.6,1.45 107.26,3.31 224.48,-1.19 351.66,-13.51 214.25,-20.77 417.25,-53.07 618.69,-112.25 133.82,-39.27 216.76,-62.26 248.81,-68.99 15.28,-3.13 28.13,-4.37 38.56,-3.7 8.2,0.51 12.13,10.25 6.68,16.35 -17.54,19.73 -39.78,35.71 -66.71,47.95 -129.46,58.61 -259.92,106.83 -399.19,135.86 -153.82,32.05 -300.78,51.11 -440.86,57.18 -115.23,4.98 -256.78,20.49 -398.47,21.34 -78.34,0.48 -155.73,0.57 -232.17,0.29 -1.12,-0.47 -7.27,1.38 -7.27,7.24 0,1.72 0.61,3.38 1.72,4.7 75.31,87.83 137.71,183.99 187.22,288.51 3.58,7.77 11.35,12.98 20.08,13.36 134.65,5.79 250.12,7.55 346.38,5.28 68.86,-1.71 198.31,-14.28 388.37,-37.7 93.23,-11.57 214.29,-35.66 363.19,-72.27z"/>
   <path class="fil0" d="M7387.54 4160.54c83.17,-4.27 168.1,-21.81 254.79,-52.63 98.06,-34.9 192.81,-74.92 284.23,-120.07 60.6,-29.97 116.23,-67.95 166.87,-113.95 59.47,-54.06 73.83,-93.18 71.56,-178.54 -2.56,-97.49 -2.32,-173.84 0.71,-229.04 0.48,-7.9 -9.7,-11.4 -14.22,-4.97 -29.6,41.73 -59.75,75.68 -90.48,101.86 -103.85,88.48 -215.29,156.2 -334.31,203.14 -158.67,62.4 -304.91,106.75 -438.73,133.02 -147.48,28.83 -275.04,47.56 -382.68,56.19 -215.76,17.16 -456.94,14.22 -723.54,-8.82 -153.35,-13.23 -313.54,-50.5 -444.7,-86.92 -244.83,-67.72 -482.55,-201.73 -643.3,-401.17 -3.9,-4.6 -11.47,-1.82 -11.52,4.12l0 279.11c0.02,2.5 0.52,4.83 1.48,6.97 14.56,37.37 34.93,70.14 61.11,98.3 107.46,115.71 235.91,198.31 385.38,247.82 118.55,39.26 213.2,66.82 283.95,82.66 61.17,13.84 143.78,25.89 247.82,36.13 143.21,14.04 226.29,21.67 249.24,22.9 225.15,12.24 417.06,5.7 575.72,-19.63 125.48,-20.01 227.15,-33 305.01,-38.98 81.37,-6.26 125.76,-13.8 195.61,-17.5z"/>
   <path class="fil0" d="M6791.9 3879.01c379.83,-29.45 760.8,-83.08 1083.59,-277.41 99.87,-60.12 186.84,-137.66 260.91,-232.59 16.4,-21.05 25.08,-40.83 26.03,-59.32 4.74,-99.4 6.11,-192.01 4.12,-277.83 -0.01,-3.37 -3.83,-5.07 -6.5,-3.17 -34.07,24.3 -64.05,50.68 -89.95,79.13 -45.52,50.08 -88.05,91.62 -133.29,118.65 -56.06,33.57 -105.37,65.15 -147.96,94.74 -13.54,9.52 -30.05,18.39 -47.47,25.25 -141.43,54.29 -280.77,97.66 -418,130.1 -100.58,23.9 -186.5,50.65 -285.51,66.15 -294.48,46.28 -588.96,60.22 -883.44,41.82 -191.39,-11.94 -366.65,-56.24 -525.8,-132.87 -12.89,-6.26 -22.9,-15.03 -30.01,-26.32 -4.35,-6.94 -0.2,-16.29 7.96,-17.63 38.28,-6.12 84.08,-3.56 125.91,7.11 84.78,21.43 170.99,40.12 258.62,56.05 67.34,12.33 155.07,20.39 263.19,24.18 172.98,6.17 271.76,8.49 296.32,6.97 24.28,-1.42 121.26,-9.76 290.92,-25.03 93.33,-8.35 189.45,-23.15 288.37,-44.39 202.67,-43.44 373.24,-81.52 511.71,-114.23 56.9,-13.52 115.37,-32.87 159.9,-76.26 19.91,-19.34 70.6,-48.89 152.07,-88.62 34.05,-16.6 64.16,-40.78 90.34,-72.56 52.49,-63.59 119.21,-133.01 121.35,-168.29 0.75,-13.66 0.47,-73.22 -0.86,-178.68 -0.06,-3.01 -3.26,-5.09 -6,-3.54 -163.58,89.9 -329.78,157.18 -498.6,201.85 -295.8,78.34 -593.69,119.17 -893.67,122.49 -255.6,2.75 -485.25,-7.54 -688.97,-30.87 -114.09,-13.09 -201.87,-26.13 -263.32,-39.12 -75.21,-15.94 -161.51,-37.04 -258.91,-63.31 -161.7,-43.53 -315.96,-109.68 -462.78,-198.45 -4.85,-3.02 -11.07,0.66 -11.09,6.32l0 181.03c0.24,18.57 6.45,35.51 17.6,49.07 49.25,61.56 107.92,119.04 176.01,172.43 54.21,42.54 96.17,51.93 161.47,48.66 96.64,-4.84 191.38,0.66 284.23,16.5 195.66,33.19 389.04,61.17 580.14,83.93 24.56,2.94 49.32,4.6 74.26,4.98 215.38,3.22 352.52,4.74 411.42,4.55 88.77,-0.28 176.68,9.82 259.62,18.21 19.63,1.99 29.59,11.81 29.87,29.45 0.08,10 -6.9,18.65 -16.64,20.62 -29.59,6.17 -68,10.35 -115.23,12.52 -129.65,6.08 -250.8,9.35 -363.47,9.82 -69.14,0.29 -163.46,-8.82 -223.35,-10.24 -42.11,-0.85 -186.79,-19.59 -434.04,-56.19 -39.64,-5.88 -84.41,-13.99 -134.29,-24.33 -51.78,-10.81 -157.34,-34.99 -238.14,-34.71 -9.01,0 -43.96,0.29 -104.85,0.85 -96.59,0.86 -136.71,-54.34 -203,-97.87 -55.2,-36.28 -110.12,-90.34 -149.95,-134.58 -4.04,-4.53 -11.71,-1.71 -11.66,4.55 1.71,125.85 2.23,199.83 1.56,221.93 -2.98,100.15 59.04,156.48 125.76,228.75 20.01,21.72 49.41,46.85 88.2,75.4 102.81,75.59 204.66,131.26 305.58,167.01 164.16,58.14 280.87,93.04 350.1,104.71 282.67,47.23 569.75,73.69 839.62,52.63z"/>
   <path class="fil0" d="M3482.79 5953.17c131.3,-443.57 358.63,-853 682.99,-1187.03 235.01,-241.84 524.22,-434.6 847.87,-518.39 4.81,-1.29 6.38,-7.57 2.56,-10.97l0 0.02c-11.95,-10.15 -24.9,-15.37 -38.84,-15.65 -75.02,-1.52 -152.12,-0.38 -231.31,3.41 -129.18,6.26 -271.15,55.63 -386.1,100.44 -54.06,21.14 -111.81,51.07 -173.27,89.76 -180.2,113.53 -333.41,240.56 -459.64,381.12 -153.83,171.37 -284.43,364.94 -391.78,580.7 -59.19,118.93 -106.28,252.8 -137.14,376.85 -0.67,2.47 -11.77,51.64 -33.3,147.52 -16.4,73.31 -25.84,122.73 -28.31,148.24 -8.34,88.01 -9.67,183.37 -3.98,286.08 5.69,103.14 33.72,205.71 60.46,296.04 32.72,110.21 87.73,212.4 165.03,306.58 1.38,1.59 2.85,2.78 4.45,3.6l106.08 58.99c3.49,1.93 7.56,-1.33 6.4,-5.13 -23.8,-79.28 -40.97,-146.61 -51.49,-202 -6.93,-36.32 -13.47,-112.15 -19.64,-227.47 -11.09,-209.12 20.49,-415.26 78.96,-612.71z"/>
   <path class="fil0" d="M3455.9 5023.92c74.26,-104.23 121.73,-168.62 142.4,-193.19 45.43,-53.87 108.07,-121.35 187.92,-202.44 108.7,-110.25 219.09,-181.94 370.74,-279.82 42.53,-27.46 90.05,-42.68 134.43,-65.3 164.17,-83.93 364.05,-126.46 546.99,-138.7 6.48,-0.53 8.31,-9.45 2.57,-12.52l-262.48 -136.57c-6.36,-3.16 -12.53,-4.85 -18.83,-5.32 -103.37,-10.33 -185.74,17.55 -335.39,51.13 -82.09,18.35 -175.13,56.19 -230.18,86.64 -96.74,53.62 -194.61,105.98 -291.35,169.14 -93.75,61.32 -167.3,131.02 -252.66,209.84 -47.32,43.62 -95.97,95.31 -145.95,155.06 -187.4,224.01 -328.19,477.47 -422.37,760.38 -80.62,242.03 -107.26,487.19 -79.95,735.48 11.81,107.27 38.27,207.42 67.43,300.6 26.08,83.36 69.23,170.57 129.46,261.61 12.23,18.5 31.06,35 56.47,49.51 54.63,31.3 109.97,61.74 166.02,91.33 4.01,2.05 8.44,-2.37 6.26,-6.4 -29.3,-55.39 -52.26,-105.46 -68.86,-150.23 -36.27,-97.87 -55.62,-205.56 -73.68,-302.59 -27.03,-145.95 -17.65,-302.72 3.83,-449.54 14.52,-99.86 34.58,-162.74 65.45,-286.08 39.54,-157.77 97.3,-272 179.81,-435.17 41.44,-82.04 82.09,-150.99 121.92,-206.85z"/>
   <path class="fil0" d="M3133.11 4732.15c213.01,-292.4 490.56,-515.18 832.65,-668.34 41.44,-18.59 123.48,-49.61 246.11,-93.04 67.15,-23.76 163.74,-38.27 218.37,-42.82 4.73,-0.4 7.27,-5.74 4.69,-9.67 -3.32,-5.03 -7.2,-8.73 -11.66,-11.1 -60.42,-32.06 -126.66,-68.85 -198.74,-110.39 -20.2,-11.58 -44.34,-17.12 -72.41,-16.65 -213.87,3.42 -416.78,49.51 -608.73,138.28 -82.6,38.12 -188.31,103.99 -317.1,197.6 -116.93,84.78 -236.72,213.1 -321.79,312.4 -123.67,144.54 -223.87,305.1 -300.6,481.69 -110.53,254.51 -194.89,535.75 -199.44,801.64 -3.89,230.65 38.22,449.73 126.32,657.24 17.93,42.11 46.09,88.15 84.51,138.13 5.27,6.73 11.07,11.78 17.6,15.52l217.12 130.58c6.6,4.04 14.19,-2.87 11.1,-9.68l0 0.01c-37.37,-87.35 -68.71,-167.53 -94.03,-240.56 -6.64,-19.16 -20.59,-81.71 -41.83,-187.64 -34.85,-174.42 -29.45,-367.89 0.43,-532.2 63.26,-347.96 199.07,-664.97 407.43,-951z"/>
   <path class="fil0" d="M2673.47 4585.05c120.64,-183.8 268.11,-349.3 442.43,-496.49 133.25,-112.57 277.45,-200.59 432.61,-264.03 149.66,-61.27 301.02,-99.35 454.1,-114.24 12.04,-1.23 21.14,-3.17 27.31,-5.83 5.45,-2.34 5.81,-9.97 0.57,-12.8l-257.78 -140.27c-2.4,-1.32 -5.16,-2.44 -8.09,-3.21 -16.61,-4.6 -37.95,-7.28 -64.03,-8.03 -207.04,-6.36 -403.88,33.62 -590.52,119.93 -231.03,106.69 -428.77,260.61 -589.24,456.36 -73.41,89.53 -121.83,152.36 -145.25,188.5 -30.73,47.61 -71.42,118.97 -122.06,214.1 -41.54,78.05 -75.4,152.79 -101.58,224.2 -136.28,372.01 -180.95,742.88 -97.87,1130.54 11.1,51.88 26.93,105.23 47.51,160.04 42.83,113.81 86.93,234.02 174.13,284.52 69.04,40.03 132.02,75.73 188.92,107.12 3.37,1.89 7,-1.66 5.41,-4.97 0,-0.01 -0.01,-0.01 -0.01,-0.02 -61.45,-139.31 -105.6,-290.25 -132.44,-452.8 -25.7,-155.06 -27.26,-311.88 -4.69,-470.45 31.01,-218.23 91.04,-423.08 180.1,-614.56 56.24,-121.11 109.73,-220.32 160.47,-297.61z"/>
   <path class="fil0" d="M2131.6 4569.4c87.92,-177.73 191.67,-344.13 311.26,-499.19 87.54,-113.53 186.74,-211.21 297.61,-293.06 138.19,-102.14 283.57,-179.67 436.17,-232.59 134.48,-46.66 270.77,-71.75 408.86,-75.26 6.87,-0.24 9.15,-9.49 3.27,-12.94 -140.65,-80.81 -284.23,-153.41 -430.77,-217.8 -205.41,-90.48 -448.83,-96.88 -661.64,-49.65 -91.81,20.3 -186.46,54.53 -283.95,102.71 -233.03,115.04 -428.73,272.71 -587.11,473.02 -230.75,291.54 -377.94,626.98 -441.58,1006.34 -29.78,177.92 -20.96,366.84 26.46,566.77 63.73,268.87 226.62,510.99 474.16,633.34 3.36,1.6 7.24,-1.54 6.12,-5.28 -10.53,-34.13 -23.76,-68.32 -39.7,-102.55 -59.32,-127.9 -90.47,-269.87 -109.82,-414.84 -31.11,-233.49 -19.3,-470.07 35.42,-709.73 18.12,-79.19 41.78,-154.4 70.99,-225.62 47.23,-115.23 78.1,-187.88 92.61,-217.95 22.95,-47.79 73.22,-130.31 150.8,-247.53 103.7,-156.77 248.67,-283.52 384.52,-401.03 23.62,-20.3 56.62,-39.5 99.01,-57.61 2.49,-1.03 5.21,1.89 3.28,4.26 -27.03,33.01 -63.45,78.96 -106.27,115.51 -129.45,110.69 -224.77,230.75 -319.52,364.62 -172.61,243.93 -284.8,519.96 -336.58,828.09 -56.62,336.69 -24.47,655.11 96.45,955.28 14.51,36.13 37.56,80.9 69.14,134.3 9.24,15.64 26.74,56.47 49.51,69.7 89.43,51.88 175.12,102.85 257.06,152.93 6.09,3.8 13.08,-3.13 9.25,-9.26 -70.99,-118.2 -106.99,-259.75 -139.56,-402.16 -70.99,-309.98 -38.69,-672.17 67.86,-966.65 45.52,-125.76 81.08,-214.48 106.69,-266.17z"/>
   <path class="fil0" d="M4276.17 4829.45c-198.59,202.29 -357.45,423.84 -476.57,664.64 -143.26,289.21 -248.1,597.35 -269.58,921.7 -13.19,199.83 13.08,399.61 78.81,599.34 18.68,56.62 42.87,108.31 72.55,155.07 1.41,2.41 5.04,0.69 3.84,-2.01 -143.4,-390.49 -122.34,-839.6 2.56,-1232.95 100.44,-316.11 257.92,-637.18 470.17,-887.13 106.7,-125.67 198.03,-221.93 274,-288.79 139.79,-123.2 303.95,-230.18 492.5,-320.94 64.87,-31.3 138.89,-59.28 222.07,-83.93 2.13,-0.76 1.28,-4.15 -0.86,-3.85 -66.38,8.16 -130.83,23.29 -193.33,45.39 -165.59,58.61 -313.11,137.56 -442.57,236.86 -110.39,84.78 -188.26,150.32 -233.59,196.6z"/>
  </g>
 </g>
</svg>
