<?xml version="1.0" encoding="UTF-8"?>
<!DOCTYPE svg PUBLIC "-//W3C//DTD SVG 1.1//EN" "http://www.w3.org/Graphics/SVG/1.1/DTD/svg11.dtd">
<!-- Creator: CorelDRAW -->
<svg xmlns="http://www.w3.org/2000/svg" xml:space="preserve" width="91.44mm" height="91.44mm" version="1.1" style="shape-rendering:geometricPrecision; text-rendering:geometricPrecision; image-rendering:optimizeQuality; fill-rule:evenodd; clip-rule:evenodd"
viewBox="0 0 9144 9144"
 xmlns:xlink="http://www.w3.org/1999/xlink"
 xmlns:xodm="http://www.corel.com/coreldraw/odm/2003">
 <defs>
  <style type="text/css">
   <![CDATA[
    .fil0 {fill:#DFE2E6;fill-rule:nonzero}
   ]]>
  </style>
 </defs>
 <g id="Camada_x0020_1">
  <metadata id="CorelCorpID_0Corel-Layer"/>
  <path class="fil0" d="M5742.66 7502.3c-0.15,-1.42 -1.34,-2.49 -2.75,-2.49 -1.53,0 -2.77,1.24 -2.77,2.77 0,0.1 0.01,0.2 0.02,0.29 -5.04,116.84 -0.6,229.36 13.33,337.58 32.4,251.35 122.15,472.14 269.25,662.38 0,-0.02 0.34,0.42 0.66,0.87 12.91,17.76 9.02,42.58 -8.66,55.44 -0.46,0.32 -0.93,0.65 -1.39,0.96l-1.35 0.89c-7.37,4.74 -15.97,7.27 -24.74,7.27 -14.34,0 -27.84,-6.72 -36.47,-18.16 -72.06,-95.93 -125.25,-182.91 -159.58,-260.96 -55.99,-127.56 -97.29,-269.92 -123.89,-427.07 -33.36,-197.1 -24.18,-392.94 27.56,-587.52 0.54,-1.99 0.81,-4.04 0.81,-6.09 0,-8.14 -4.2,-15.72 -11.1,-20.04 -117.5,-73.78 -393.37,-243.45 -827.61,-509.02 -297.68,-182.06 -507.3,-312.62 -722.57,-442.6 -435.3,-262.96 -737.96,-444.53 -907.98,-544.72 -30.56,-18.09 -53.38,-37.53 -68.47,-58.32 -373.59,-514.99 -597.58,-823.35 -671.94,-925.09 -531.82,-727.07 -855.75,-1165.18 -1168.81,-1615.75 -27.41,-39.46 -38.87,-68.33 -12.76,-106.92 14.94,-21.9 40.04,-29.88 61.94,-43.66 7.49,-4.64 15.13,-10.82 21.91,-17.89 112.18,-117.96 227.56,-235.49 346.12,-352.61 680.66,-672.24 1233.94,-1222.33 1867.01,-1824.93 45.16,-43.05 78.72,-72.93 100.68,-89.66 5.5,-4.23 8.73,-10.77 8.73,-17.71 0,-2.72 -0.51,-5.43 -1.47,-7.97 -21.77,-56.96 -9.05,-94.82 38.15,-113.58 10.73,-4.26 25.72,-2.47 44.97,5.36 29.3,11.9 39.45,53.39 40.32,82.26 0.24,7.38 5.88,13.47 13.18,14.21 145.24,15.09 294.8,51.65 444.65,75.44 134.14,21.28 267.75,44.05 400.82,68.32 740.62,135.01 1188.53,216.88 1343.75,245.6 440.42,81.34 881.67,159.96 1323.73,235.88 188.11,32.3 333.66,58.7 436.65,79.21 42.07,8.41 60.64,23.93 63.4,64.41 2.32,32.68 1.35,86.55 -2.9,161.6 -26.5,460.83 -46.52,771.51 -60.06,932.06 -17.99,214.5 -31.77,391.62 -41.35,531.37 -35.39,512.81 -70.64,925.67 -105.32,1459.37 -1.83,28.92 -12.08,57.01 -30.75,84.29 -424.07,620.3 -744.86,1086.64 -962.37,1399.02 -135.78,194.87 -230.46,332.24 -284.04,412.13 -53.48,79.59 -242.7,351.45 -567.64,815.56 -2.66,3.77 -2.48,8.85 0.45,12.48 17.83,22.05 35.24,40.76 54.09,66.73 164.6,227.95 261.31,360.3 290.14,397.04 55.12,70.03 124.6,127.47 208.45,172.35 13.14,7.03 21.34,20.74 21.34,35.65 0,6.97 -1.8,13.83 -5.23,19.89l-1.02 1.9c-7.49,13.2 -21.51,21.37 -36.71,21.37 -7.15,0 -14.19,-1.82 -20.44,-5.27 -107.35,-59.77 -189.65,-129.44 -246.91,-209.04 -73.79,-102.8 -154.11,-219.09 -240.95,-348.88 -1.54,-2.23 -4.08,-3.56 -6.79,-3.56 -4.56,0 -8.26,3.7 -8.26,8.27 0,0.46 0.03,0.92 0.11,1.37 40.04,213.65 106.76,415.53 200.18,605.66 53.68,109.29 132.94,223.11 237.77,341.49 36.56,41.35 82.4,75.58 120.55,115.62 7.26,7.57 11.31,17.67 11.31,28.17 0,12.08 -5.36,23.56 -14.64,31.3l-1.46 1.31c-18.08,15.37 -45.31,14.86 -63.23,-1.47 -108.33,-100.37 -199.04,-206.02 -272.16,-316.95 -26.79,-40.62 -58.8,-95.4 -96.04,-164.36 -34.9,-64.8 -61.26,-122.29 -79.06,-172.49 -45.26,-127.65 -73.54,-218.9 -84.86,-273.74 -7.16,-34.42 -15.67,-69.96 -25.53,-106.62zm1861.93 -6072.05c-243.04,-40.13 -526.21,-87.14 -849.51,-141 -31.14,-5.22 -63.74,-10.78 -97.78,-16.68 -654.1,-112.29 -1362.17,-244.15 -2052.25,-365.28 -350.19,-61.51 -569.68,-102.85 -777.56,-137.24 -0.28,-0.03 -0.59,-0.04 -0.9,-0.03 -2.88,0.1 -5.08,2.46 -5.04,5.25 0,0.28 0.06,0.75 0.14,1.01l345.79 1224.34c0.65,2.5 2.26,4.67 4.5,5.94l69.33 39.75c3.63,2.06 8.02,2.71 12.17,1.9 946.92,-185.82 1907.08,-369.16 2857.3,-532.08 144.58,-24.75 309.19,-52.08 493.81,-81.96 0.88,-0.24 1.49,-1.04 1.49,-1.96 0,-0.92 -0.61,-1.72 -1.49,-1.96l0 0zm-6008.8 1476.92c-0.59,0.69 -0.92,1.57 -0.92,2.48 0,2.09 1.69,3.77 3.77,3.77 0.36,0 0.72,-0.05 1.07,-0.15 157.54,-55.03 356.09,-122.39 595.64,-202.08 180.61,-59.91 330.75,-114.17 491.48,-161.31 12.68,-3.77 87.87,-28.43 225.58,-73.99 362.82,-119.93 754.78,-266.62 1115.37,-373.87 5.52,-1.63 9.86,-5.99 11.47,-11.46 7.01,-23.87 19.52,-45.41 37.42,-64.56 4.26,-4.51 6.11,-10.97 4.5,-16.97l-327.66 -1213.59c-0.76,-3.28 -3.69,-5.61 -7.06,-5.61 -1.79,0 -3.51,0.66 -4.83,1.84 -35.88,32.2 -77.81,70.89 -125.78,116.05 -54.45,51.16 -320.94,311.8 -799.46,781.91 -435.59,427.95 -842.45,833.79 -1220.59,1217.54zm3766.66 1035.44c1.68,6.72 7.72,11.44 14.65,11.44 1.38,0 2.76,-0.17 4.07,-0.56l2229.07 -658.7c6.17,-1.7 10.59,-7.11 11.04,-13.49l110.82 -1691.18c0.03,-0.35 0.04,-0.7 0.04,-1.05 0,-8.33 -6.75,-15.08 -15.09,-15.08 -1.03,0 -2.1,0.1 -3.08,0.31l-2805.08 621.71c-7.01,1.44 -12.05,7.62 -12.05,14.78 0,1.23 0.16,2.55 0.45,3.64l465.16 1728.18zm-1714.15 -1514.05c-2.44,-7.98 -9.81,-13.43 -18.16,-13.43 -32.7,0 -1631.98,512.28 -2165.93,686.87 -7.82,2.54 -13.13,9.84 -13.13,18.08 0,3.97 1.25,7.85 3.57,11.08l1130.49 1562.51c3.58,4.91 9.3,7.83 15.38,7.83 1.77,0 3.52,-0.28 5.22,-0.73l1633.55 -423.93c8.15,-2.33 13.78,-9.78 13.78,-18.26 0,-1.92 -0.27,-3.86 -0.86,-5.67l-603.91 -1824.35zm2021.93 2661.67c-2.13,0.52 -3.62,2.44 -3.62,4.64 0,0.39 0.03,0.83 0.14,1.15l490.8 1426.79c0.58,2.07 2.47,3.51 4.62,3.51 1.58,0 3.05,-0.77 3.95,-2.07l1366.22 -1959.55c0.57,-0.8 0.88,-1.76 0.88,-2.75 0,-2.64 -2.14,-4.79 -4.79,-4.79 -0.38,0 -0.83,0.06 -1.16,0.15l-1857.04 532.92zm-567.32 1652.36l-528.66 -1377.74c-1.49,-4.94 -6.58,-7.54 -11.46,-6.4l-1272.04 298.17c-2.98,0.72 -5.06,3.4 -5.06,6.46 0,2.44 1.33,4.69 3.47,5.86 194.19,112 420.78,244.01 679.77,396.04 140.28,82.25 321.47,198.45 433.32,263.01 74.85,43.23 132.1,78 171.75,104.3 114.03,75.73 219.63,130.56 345.12,212.52 27.85,18.18 86.22,53.05 175.09,104.6 0.92,0.52 1.95,0.8 3.01,0.8 3.28,0 5.95,-2.67 5.95,-5.95 0,-0.57 -0.09,-1.14 -0.25,-1.68l-0.01 0.01z"/>
 </g>
</svg>
