<?xml version="1.0" encoding="UTF-8"?>
<!DOCTYPE svg PUBLIC "-//W3C//DTD SVG 1.1//EN" "http://www.w3.org/Graphics/SVG/1.1/DTD/svg11.dtd">
<!-- Creator: CorelDRAW -->
<svg xmlns="http://www.w3.org/2000/svg" xml:space="preserve" width="91.44mm" height="91.44mm" version="1.1" style="shape-rendering:geometricPrecision; text-rendering:geometricPrecision; image-rendering:optimizeQuality; fill-rule:evenodd; clip-rule:evenodd"
viewBox="0 0 9144 9144"
 xmlns:xlink="http://www.w3.org/1999/xlink"
 xmlns:xodm="http://www.corel.com/coreldraw/odm/2003">
 <defs>
  <style type="text/css">
   <![CDATA[
    .fil0 {fill:#DFE2E6;fill-rule:nonzero}
   ]]>
  </style>
 </defs>
 <g id="Camada_x0020_1">
  <metadata id="CorelCorpID_0Corel-Layer"/>
  <g id="_1347794331808">
   <path class="fil0" d="M5812.28 1370.64c-801.63,342.32 -1580.7,714.11 -2338.34,1113.65 -727.79,383.8 -1433.06,791.74 -2116.9,1222.35 859.08,599.75 1565.51,1229.09 2133.06,1885.26 549.92,635.73 969.9,1296.84 1272.47,1980.81 619.9,-774.99 1194.57,-1357.84 1725.85,-1756.05 515.84,-386.66 994.28,-601.65 1436.69,-651.71 -163.34,-512.72 -437.48,-1087.13 -785.64,-1702.71 -372.36,-658.38 -829.7,-1363.89 -1327.19,-2091.6zm-2467.33 868.7c793.95,-418.69 1614.79,-808.51 2463.99,-1167.58l103.95 -43.97 64.04 93.29c525.24,765.13 1009.63,1508.79 1403.16,2204.6 396.12,700.37 699.91,1352.38 860.59,1929.27l48.19 173.08 -180.42 1.95c-431.82,4.65 -915.81,204.22 -1454.21,607.79 -552.95,414.48 -1158.55,1041.08 -1819.15,1889.18l-147.44 189.26 -89.91 -222.85c-295.93,-733.47 -729.42,-1441.34 -1316.83,-2120.45 -590.2,-682.36 -1335.39,-1335.63 -2251.95,-1956.61l-173.83 -117.77 177.08 -113.09c748.5,-478.15 1518.98,-927.51 2312.74,-1346.1z"/>
   <path class="fil0" d="M4181.95 1967.85c15.44,14.03 30.86,28.08 46.23,42.17 211.25,193.44 410.17,386.58 593.59,582.33 174.33,185.99 334.06,373.56 483.08,559.48 104.28,129.98 206.6,263.75 306.73,397.81 87.62,-85.48 172.43,-168.78 252.22,-248.18 121.97,-121.43 244.69,-246.22 369.51,-377.68 119.43,-125.82 235.2,-252.89 348.46,-380.88 32.67,-36.91 65.32,-74.1 97.96,-111.55 69.67,109.83 137.79,218.8 204.17,326.86 -17.99,20.48 -36.03,40.96 -54.14,61.41 -117.9,133.23 -236.64,263.64 -356.68,390.09 -118.21,124.54 -245.22,253.44 -377.73,385.37 -134.43,133.81 -262.31,258.62 -389.63,382.25l-135.25 131.35 -114.11 -155.18c-126.77,-172.4 -261.69,-351.62 -411.82,-538.84 -145.46,-181.42 -299.31,-362.33 -463.9,-537.93 -177.81,-189.75 -369.75,-376.13 -573.04,-562.3 -60.16,-55.07 -121.87,-110.61 -184.98,-166.6 119.22,-60.65 238.98,-120.66 359.33,-179.98zm3158.99 1571.36c-115.14,115.07 -231.88,228.67 -350.76,340.4 -141.62,133.09 -284.77,262.29 -429.22,389.93 -90.52,79.99 -200.39,175.47 -316.27,275.83 64.13,119.91 126.54,239.76 187.13,359.7 83.66,165.56 164.59,333.27 242.63,503.86 62.81,137.29 110.77,243.69 153.19,338.58 -97.58,63.59 -196.81,133.96 -297.68,211.1 -64.93,-145.97 -125.73,-282.21 -166.54,-371.36 -72.18,-157.76 -150.96,-320.68 -235.75,-488.49 -82.56,-163.35 -170.38,-329.78 -262.94,-499.37l-81.88 -149.91 124.34 -107.54c135.38,-117.1 271,-234.49 437.28,-381.39 144.16,-127.37 285.16,-254.57 421.02,-382.26 129.56,-121.75 257.73,-247.05 384.88,-374.99 65.88,113.24 129.45,225.23 190.57,335.91zm-1460.66 2988.28c-55.75,-135.66 -110.54,-271.29 -165.46,-407.25l-14.47 -35.82c-64.8,-160.48 -134.13,-326.07 -208.46,-497.18 -44.56,-102.51 -89.32,-203.35 -134.23,-302.31 -115.14,92.82 -227.67,183.13 -334.14,267.78l-0.69 0c-185.85,147.73 -362.23,286.41 -520.03,407.68 -179.47,137.92 -369.76,279.86 -569.23,425.63l-0.03 0.03c-71.24,-102.31 -145.58,-204.04 -223.12,-305.14l32.68 -23.84c188.78,-137.96 375.93,-277.72 562.42,-421.04 194.75,-149.65 363.2,-281.69 515.44,-402.69l-0.23 -0.36c181.48,-144.28 343.25,-274.55 497.18,-399.08l163.22 -132.02 93.7 199.65c83.57,178.19 160.8,349.24 232.18,513.55 72.11,165.93 142.97,335.54 212.6,507.93l14.47 35.8c41.56,102.91 83.04,205.64 124.71,307.8 -91.57,81.72 -184.41,168.66 -278.51,260.88zm-2579.26 -941.24c72.23,-57.9 144.21,-115.98 216.01,-174.39 178.99,-145.58 350.1,-287.62 511.79,-425.89 172.3,-147.31 326.76,-282.22 469.6,-408.84 95.44,-84.59 204.77,-182.6 320.26,-286.6 -81,-123.69 -166.03,-249.95 -257.33,-378.79 -124.97,-176.37 -258.1,-351.89 -402.53,-522.14 -154.97,-182.74 -323.37,-360.32 -502.35,-536.48 -136.85,-134.68 -277.6,-266.73 -421.89,-398.36 116.14,-62.17 232.79,-123.69 350.02,-184.57 104.49,96.87 205.44,192.71 302.03,287.77 188.12,185.15 364.46,371.04 525.66,561.09 153.43,180.84 293.07,364.81 423.07,548.28 126.39,178.36 247.52,362.51 364.53,544.59l96.94 150.9 -129.14 116.61c-132.1,119.27 -276.15,248.61 -452.79,405.14 -164.38,145.71 -324.01,285.41 -473.7,413.43 -171.7,146.82 -344.31,290.25 -518.65,432.07 -58,47.19 -116.98,94.82 -176.83,142.88 -78.57,-96.13 -160.18,-191.7 -244.7,-286.7z"/>
   <path class="fil0" d="M5918.77 1201.32c-48.76,1195.05 -186.82,2333.46 -386.02,3436.14 -199.16,1102.49 -459.3,2168.55 -752.37,3219.39l-108.41 -29.98c292.42,-1048.53 551.84,-2111.44 750.16,-3209.24 198.28,-1097.61 335.72,-2230.9 384.26,-3420.71l112.38 4.4z"/>
   <path class="fil0" d="M7118.26 3319.51c-430.13,-616.76 -939.47,-983.95 -1516.56,-1137.11 -579.92,-153.89 -1231.77,-93.41 -1943.45,145.75l-54.89 -163.93c743.59,-249.89 1428.33,-312.09 2042.37,-149.15 616.83,163.71 1159.06,553.07 1614.09,1205.56l-141.56 98.88z"/>
  </g>
 </g>
</svg>
